HIERARCHY
ROOT Hips
{
	OFFSET 0.00000 0.00000 0.00000
	CHANNELS 6 Xposition Yposition Zposition Zrotation Yrotation Xrotation 
	JOINT LHipJoint
	{
		OFFSET 0 0 0
		CHANNELS 3 Zrotation Yrotation Xrotation
		JOINT LeftUpLeg
		{
			OFFSET 1.54859 -1.61379 0.86856
			CHANNELS 3 Zrotation Yrotation Xrotation
			JOINT LeftLeg
			{
				OFFSET 2.25087 -6.18423 0.00000
				CHANNELS 3 Zrotation Yrotation Xrotation
				JOINT LeftFoot
				{
					OFFSET 2.40328 -6.60297 0.00000
					CHANNELS 3 Zrotation Yrotation Xrotation
					JOINT LeftToeBase
					{
						OFFSET 0.17435 -0.47901 2.02453
						CHANNELS 3 Zrotation Yrotation Xrotation
						End Site
						{
							OFFSET 0.00000 -0.00000 1.04844
						}
					}
				}
			}
		}
	}
	JOINT RHipJoint
	{
		OFFSET 0 0 0
		CHANNELS 3 Zrotation Yrotation Xrotation
		JOINT RightUpLeg
		{
			OFFSET -1.54669 -1.61379 0.86856
			CHANNELS 3 Zrotation Yrotation Xrotation
			JOINT RightLeg
			{
				OFFSET -2.28132 -6.26789 0.00000
				CHANNELS 3 Zrotation Yrotation Xrotation
				JOINT RightFoot
				{
					OFFSET -2.51636 -6.91365 0.00000
					CHANNELS 3 Zrotation Yrotation Xrotation
					JOINT RightToeBase
					{
						OFFSET -0.15124 -0.41552 2.21090
						CHANNELS 3 Zrotation Yrotation Xrotation
						End Site
						{
							OFFSET -0.00000 -0.00000 1.13399
						}
					}
				}
			}
		}
	}
	JOINT LowerBack
	{
		OFFSET 0 0 0
		CHANNELS 3 Zrotation Yrotation Xrotation
		JOINT Spine
		{
			OFFSET -0.04287 2.26161 -0.25690
			CHANNELS 3 Zrotation Yrotation Xrotation
			JOINT Spine1
			{
				OFFSET 0.02248 2.28395 -0.10140
				CHANNELS 3 Zrotation Yrotation Xrotation
				JOINT Neck
				{
					OFFSET 0 0 0
					CHANNELS 3 Zrotation Yrotation Xrotation
					JOINT Neck1
					{
						OFFSET -0.11644 1.38496 0.11345
						CHANNELS 3 Zrotation Yrotation Xrotation
						JOINT Head
						{
							OFFSET 0.29383 1.36600 0.06642
							CHANNELS 3 Zrotation Yrotation Xrotation
							End Site
							{
								OFFSET 0.11075 1.41395 -0.00294
							}
						}
					}
				}
				JOINT LeftShoulder
				{
					OFFSET 0 0 0
					CHANNELS 3 Zrotation Yrotation Xrotation
					JOINT LeftArm
					{
						OFFSET 3.51628 0.59542 -0.30346
						CHANNELS 3 Zrotation Yrotation Xrotation
						JOINT LeftForeArm
						{
							OFFSET 4.76405 -0.00000 0.00000
							CHANNELS 3 Zrotation Yrotation Xrotation
							JOINT LeftHand
							{
								OFFSET 3.13759 -0.00000 -0.00000
								CHANNELS 3 Zrotation Yrotation Xrotation
								JOINT LeftFingerBase
								{
									OFFSET 0 0 0
									CHANNELS 3 Zrotation Yrotation Xrotation
									JOINT LeftHandIndex1
									{
										OFFSET 0.73226 -0.00000 -0.00000
										CHANNELS 3 Zrotation Yrotation Xrotation
										End Site
										{
											OFFSET 0.59037 -0.00000 -0.00000
										}
									}
								}
								JOINT LThumb
								{
									OFFSET 0 0 0
									CHANNELS 3 Zrotation Yrotation Xrotation
									End Site
									{
										OFFSET 0.59938 -0.00000 0.59938
									}
								}
							}
						}
					}
				}
				JOINT RightShoulder
				{
					OFFSET 0 0 0
					CHANNELS 3 Zrotation Yrotation Xrotation
					JOINT RightArm
					{
						OFFSET -3.30990 0.84213 -0.36430
						CHANNELS 3 Zrotation Yrotation Xrotation
						JOINT RightForeArm
						{
							OFFSET -5.10161 -0.00000 -0.00000
							CHANNELS 3 Zrotation Yrotation Xrotation
							JOINT RightHand
							{
								OFFSET -3.23267 -0.00000 -0.00000
								CHANNELS 3 Zrotation Yrotation Xrotation
								JOINT RightFingerBase
								{
									OFFSET 0 0 0
									CHANNELS 3 Zrotation Yrotation Xrotation
									JOINT RightHandIndex1
									{
										OFFSET -0.70200 -0.00000 -0.00000
										CHANNELS 3 Zrotation Yrotation Xrotation
										End Site
										{
											OFFSET -0.56597 -0.00000 -0.00000
										}
									}
								}
								JOINT RThumb
								{
									OFFSET 0 0 0
									CHANNELS 3 Zrotation Yrotation Xrotation
									End Site
									{
										OFFSET -0.57461 -0.00000 0.57461
									}
								}
							}
						}
					}
				}
			}
		}
	}
}
MOTION
Frames: 9
Frame Time: .0083333
-32.1048 14.5001 -10.1968 0 0 0 0 0 0 -21 0 0 0 0 0 0 0 0 0 0 0 0 0 0 21 0 0 0 0 0 0 0 0 0 0 0 0 0 0 0 0 0 0 0 0 0 0 -16 0 0 21 0 0 11 0 0 0 -8 0 0 0 0 0 0 0 0 0 0 0 0 0 0 0 0 0 0 0 0 8 0 0 0 0 0 0 0 0 0 0 0 0 0 0 0 0 0
-32.1048 14.5001 -10.1968 47.9301 69.5139 51.5379 0.0000 0.0000 0.0000 -21.2299 10.2020 -7.5348 5.7661 14.1978 44.0355 -0.1572 -16.0839 -9.5935 5.7215 -14.1529 -43.8534 0.0000 0.0000 0.0000 15.2012 11.6445 -46.2320 -25.4828 -19.2634 106.2222 0.0819 -9.3657 -11.7891 -1.2866 7.1877 -20.2726 -13.8262 -5.0758 22.8823 -0.9471 -9.0145 7.7740 8.7051 -4.4535 -1.9273 -12.1054 -3.9891 -3.6876 18.0683 -2.7616 -17.6209 7.8644 -1.3770 -3.9767 0.0000 -0.0000 0.0000 -92.4292 -4.6231 33.7323 65.4570 -57.5969 -38.9166 -0.0000 0.0000 -17.1276 38.2259 23.5207 17.4498 -7.1250 0.0000 -0.0000 10.5301 58.6577 3.5413 0.0000 -0.0000 0.0000 77.8521 2.7970 -12.8074 -116.0599 57.2716 -82.3618 0.0000 -0.0000 -33.1541 -27.2536 26.8465 -13.0956 7.1250 -0.0000 -0.0000 1.6728 -0.3354 1.6637
-31.5150 14.5778 -9.9780 46.3274 69.0456 50.5144 0.0000 0.0000 0.0000 -20.4638 11.1769 -4.5581 5.0592 13.4501 41.0777 -0.4250 -15.4322 -5.3943 3.6337 -11.6564 -34.5270 0.0000 0.0000 0.0000 15.1626 14.0121 -48.5567 -24.2471 -19.5619 102.5055 0.0143 -9.3140 -13.0169 -0.7424 5.5039 -15.3516 -14.0353 -5.3784 21.8587 -0.7544 -9.3722 7.4382 8.9750 -4.6707 -1.6300 -12.5908 -3.4589 -3.9224 17.7403 -2.1446 -16.8793 7.8117 -1.0161 -3.8201 -0.0000 -0.0000 0.0000 -90.9684 -4.2702 34.8841 68.7415 -58.2216 -41.6995 -0.0000 0.0000 -15.1903 39.5494 20.9557 16.4539 -7.1250 0.0000 -0.0000 12.1403 55.9786 3.3044 -0.0000 -0.0000 0.0000 78.7900 2.7125 -10.3589 -118.9770 56.5764 -84.8064 0.0000 -0.0000 -33.2699 -28.0658 26.0501 -13.1785 7.1250 -0.0000 -0.0000 1.0659 -0.9997 1.0473
-30.9274 14.6444 -9.7730 45.3169 68.3229 50.1721 0.0000 0.0000 0.0000 -20.1773 11.9237 -1.5634 4.2922 12.5394 37.6678 -0.5115 -13.8461 -1.1516 2.8111 -10.3827 -30.2252 0.0000 0.0000 0.0000 14.5499 15.9393 -50.6595 -22.8704 -19.8013 98.4193 0.0017 -9.3345 -13.2706 -0.8425 5.8546 -16.3632 -14.5186 -5.6892 20.8136 -0.4948 -9.7980 7.0009 9.4653 -4.9236 -1.3407 -12.9974 -2.8942 -4.0368 17.0534 -1.5038 -16.3809 7.6360 -0.6425 -3.7745 0.0000 -0.0000 0.0000 -89.8494 -3.5841 35.7146 72.4059 -58.7974 -44.8246 -0.0000 0.0000 -13.8804 40.3445 18.3349 14.9597 -7.1250 0.0000 -0.0000 12.9124 53.0182 2.5814 0.0000 -0.0000 0.0000 79.7573 2.7578 -7.8038 -121.5809 55.8737 -86.9710 0.0000 -0.0000 -32.5369 -29.1153 25.7663 -13.6097 7.1250 -0.0000 -0.0000 0.3938 -1.0593 0.3865
-30.3270 14.7170 -9.5555 43.2024 67.3699 49.0575 0.0000 0.0000 0.0000 -19.8706 12.6173 1.3396 3.5068 11.4735 33.8940 -0.4651 -12.0693 2.9073 2.7433 -10.2674 -29.8469 0.0000 0.0000 0.0000 13.9474 18.1570 -52.7072 -21.3865 -19.9538 94.0569 0.0231 -9.0222 -12.4271 -1.3373 7.3222 -20.6736 -14.2541 -6.0488 19.0637 -0.8033 -10.0433 6.6971 8.7933 -5.0806 -0.8349 -12.5584 -2.4048 -4.4271 16.4881 -0.9339 -15.6760 7.3398 -0.3445 -3.6102 0.0000 0.0000 0.0000 -87.6361 -2.4313 36.6935 76.8549 -59.3369 -48.6413 -0.0000 0.0000 -13.1848 40.1158 16.9560 13.8051 -7.1250 0.0000 -0.0000 12.5563 51.2883 1.9712 0.0000 0.0000 0.0000 82.0048 2.7892 -5.1365 -123.9619 55.1583 -88.9337 0.0000 -0.0000 -30.6236 -30.3015 25.9516 -14.3451 7.1250 -0.0000 -0.0000 -0.2831 -0.5701 -0.2803
-29.7133 14.7973 -9.3255 40.8542 66.0998 47.7168 0.0000 0.0000 0.0000 -19.8651 13.1020 4.5358 2.7109 10.2117 29.6651 -0.3548 -10.7023 6.2132 3.3882 -11.2985 -33.2932 0.0000 0.0000 0.0000 13.2725 20.2336 -54.4298 -19.7628 -19.9987 89.3064 0.0697 -8.4939 -10.6368 -2.1626 9.1969 -26.4131 -14.9964 -6.0595 17.2371 -0.3830 -9.9721 6.3616 9.3898 -5.1465 -0.0455 -12.6939 -1.9249 -4.8573 15.4120 -0.4242 -15.0587 6.9834 -0.0285 -3.4606 -0.0000 0.0000 0.0000 -86.8341 -1.3717 37.8466 80.8890 -59.6840 -52.1180 -0.0000 0.0000 -12.4629 40.1352 15.9771 13.0656 -7.1250 0.0000 -0.0000 12.4978 50.0936 1.5910 -0.0000 0.0000 0.0000 82.8926 3.0394 -2.4700 -125.9398 54.5073 -90.5507 0.0000 -0.0000 -28.1057 -31.4815 26.1779 -15.1174 7.1250 -0.0000 -0.0000 -0.9439 -0.0231 -0.9436
-29.0871 14.8794 -9.0959 39.0311 65.0449 47.1307 0.0000 0.0000 0.0000 -20.2044 12.6611 7.8368 1.9724 8.8083 25.1974 0.1443 -4.7013 10.4310 1.8732 -8.5968 -24.5420 0.0000 0.0000 0.0000 12.7253 21.6759 -56.1125 -18.0002 -19.9038 84.1441 0.0411 -7.5800 -9.8576 -2.4483 9.7434 -28.1496 -15.1026 -6.2934 15.2836 -0.1133 -10.0747 5.9160 9.4901 -5.2614 0.5926 -12.6548 -1.5392 -5.6473 14.4353 -0.0191 -14.0755 6.6252 0.2307 -3.1210 -0.0000 -0.0000 0.0000 -85.8747 -0.3004 39.0368 84.1759 -59.8714 -54.9583 -0.0000 0.0000 -12.2375 40.8024 15.6237 13.0881 -7.1250 0.0000 -0.0000 13.1673 49.7943 1.5806 -0.0000 -0.0000 0.0000 83.9293 2.9774 0.5199 -127.9789 53.7788 -92.2034 0.0000 -0.0000 -25.2901 -32.6921 26.3522 -15.9014 7.1250 -0.0000 -0.0000 -1.6263 0.4908 -1.6409
-28.4664 14.9596 -8.8902 37.6245 64.0734 45.7325 0.0000 0.0000 0.0000 -20.8285 11.9653 12.7268 1.3275 7.2964 20.5965 0.2438 -0.3041 9.4416 1.8566 -8.5608 -24.4309 0.0000 0.0000 0.0000 12.8142 22.0810 -56.1931 -16.1141 -19.6340 78.5713 -0.0364 -6.3446 -9.9423 -2.4555 9.7566 -28.1922 -15.0866 -6.3250 14.7229 0.0041 -10.0540 5.7873 9.5342 -5.2698 0.7627 -12.5091 -1.2415 -6.4247 13.5340 0.2820 -13.0800 6.2834 0.4226 -2.7604 0.0000 -0.0000 0.0000 -84.8825 0.4849 40.5144 86.4512 -59.9524 -56.9271 -0.0000 0.0000 -12.5978 41.5920 15.7929 13.5806 -7.1250 0.0000 -0.0000 14.0214 50.1678 1.8174 0.0000 -0.0000 0.0000 84.8034 2.6688 3.8201 -130.0338 52.9818 -93.8529 0.0000 -0.0000 -21.8452 -34.4242 26.3393 -16.9131 7.1250 -0.0000 -0.0000 -2.6452 0.9628 -2.6921
-27.8511 15.0106 -8.6954 36.7878 63.2401 44.9121 0.0000 0.0000 0.0000 -21.7011 11.2732 17.7454 0.8000 5.7088 15.9419 0.1470 4.4434 7.0350 2.0242 -8.9164 -25.5340 0.0000 0.0000 0.0000 13.1316 21.7895 -56.0795 -14.1946 -19.1720 72.7979 -0.0874 -5.4135 -9.9685 -3.0252 10.7357 -31.3937 -15.2128 -6.4828 14.3380 0.2958 -10.2618 5.5015 9.8911 -5.3827 0.7928 -12.4692 -0.8520 -7.1690 12.5067 0.6979 -11.9483 5.9274 0.6686 -2.3797 -0.0000 0.0000 0.0000 -84.4989 2.6850 41.4826 91.0069 -59.9962 -60.8720 -0.0000 0.0000 -13.1436 41.9875 15.8974 13.8488 -7.1250 0.0000 -0.0000 14.4567 50.3821 1.9532 -0.0000 0.0000 0.0000 85.0401 2.2888 7.7187 -131.7932 52.2462 -95.2509 0.0000 -0.0000 -17.8356 -36.1845 26.5147 -18.0845 7.1250 -0.0000 -0.0000 -3.6355 1.6848 -3.7482
